<svg xmlns="http://www.w3.org/2000/svg" id="svg13" height="16" width="16" viewBox="0 0 16 16">
  <style id="style2">
    .path1{fill:#7dba5c}
  </style>
  <symbol  id="icon-github">
    <path d="M8 .198a8 8 0 0 0-2.529 15.591c.4.074.547-.174.547-.385 0-.191-.008-.821-.011-1.489-2.226.484-2.695-.944-2.695-.944-.364-.925-.888-1.171-.888-1.171-.726-.497.055-.486.055-.486.803.056 1.226.824 1.226.824.714 1.223 1.872.869 2.328.665.072-.517.279-.87.508-1.07-1.777-.202-3.645-.888-3.645-3.954 0-.873.313-1.587.824-2.147-.083-.202-.357-1.015.077-2.117 0 0 .672-.215 2.201.82A7.672 7.672 0 0 1 8 4.066c.68.003 1.365.092 2.004.269 1.527-1.035 2.198-.82 2.198-.82.435 1.102.162 1.916.079 2.117.513.56.823 1.274.823 2.147 0 3.073-1.872 3.749-3.653 3.947.287.248.543.735.543 1.481 0 1.07-.009 1.932-.009 2.195 0 .213.144.462.55.384A8 8 0 0 0 8.001.196z" class="path1" fill="#7dba5c"/>
  </symbol>
  <symbol  id="icon-stackoverflow">
    <path d="M16 10v6H0v-6h2v4h12v-4zM3 11h10v2H3zm.237-2.165l.433-1.953 9.763 2.164L13 10.999zM4.37 4.821l.845-1.813 9.063 4.226-.845 1.813zm11.126.827l-1.218 1.587-7.934-6.088L7.224 0h.91z" class="path1"/>
  </symbol>
  <symbol id="icon-linkedin">
    <path d="M14.5 0h-13C.675 0 0 .675 0 1.5v13c0 .825.675 1.5 1.5 1.5h13c.825 0 1.5-.675 1.5-1.5v-13c0-.825-.675-1.5-1.5-1.5zM6 13H4V6h2v7zM5 5a1 1 0 1 1 0-2 1 1 0 1 1 0 2zm8 8h-2V9a1 1 0 1 0-2 0v4H7V6h2v1.241C9.412 6.675 10.044 6 10.75 6 11.994 6 13 7.119 13 8.5V13z" class="path1"/>
  </symbol>
</svg>